<?xml version="1.0"?>
<svg width="448" height="512" xmlns="http://www.w3.org/2000/svg" xmlns:svg="http://www.w3.org/2000/svg">
 <!--!Font Awesome Free 6.6.0 by @fontawesome - https://fontawesome.com License - https://fontawesome.com/license/free Copyright 2024 Fonticons, Inc.-->
 <g class="layer">
  <title>Layer 1</title>
  <path d="m64,32c-35.3,0 -64,28.7 -64,64l0,320c0,35.3 28.7,64 64,64l224,0l0,-112c0,-26.5 21.5,-48 48,-48l112,0l0,-224c0,-35.3 -28.7,-64 -64,-64l-320,0zm384,320l-45.3,0l-66.7,0c-8.8,0 -16,7.2 -16,16l0,66.7l0,45.3l32,-32l64,-64l32,-32z" fill="#FFD43B" id="svg_1"/>
  <text fill="#00007f" font-family="Sans-serif" font-size="24" font-style="normal" font-weight="bold" id="svg_2" stroke="#000000" stroke-width="0" text-anchor="middle" transform="matrix(14.6163 0 0 13.4635 -3498.63 -3993.87)" x="249.93" xml:space="preserve" y="321.27">N</text>
 </g>
</svg>